<?xml version="1.0" encoding="iso-8859-1"?>
<!-- Uploaded to: SVG Repo, www.svgrepo.com, Generator: SVG Repo Mixer Tools -->
<svg height="800px" width="800px" version="1.1" id="Layer_1" xmlns="http://www.w3.org/2000/svg" xmlns:xlink="http://www.w3.org/1999/xlink" 
	 viewBox="0 0 448.211 448.211" xml:space="preserve">
<g transform="translate(0 -1020.36)" shape-rendering="auto" image-rendering="auto" color-rendering="auto" color-interpolation="sRGB">
	<path style="fill:#EBFEFF;" d="M231.689,1036.485c0.121,0.003,0.242,0.003,0.363,0c109.834,3.007,196.955,90.188,199.968,200.095
		c-0.003,0.123-0.003,0.244,0,0.367c-10.56-0.48-21.115-0.367-31.656,0.783c-4.41,0.318-7.726,4.152-7.407,8.563
		c0.319,4.408,4.152,7.725,8.562,7.406l0,0c0.011,0,0.021,0,0.032,0c0.163-0.049,0.324-0.102,0.484-0.16
		c9.911-1.088,19.905-1.137,29.875-0.656c1.983,53.529-18.347,105.42-56.125,143.219c-37.799,37.82-89.65,58.164-143.219,56.188
		c-0.041,0-0.081,0-0.122,0c-0.363-8.457-0.302-16.938,0.423-25.377c0.538-4.387-2.583-8.381-6.97-8.918
		c-4.388-0.539-8.381,2.582-8.919,6.969c-0.022,0.18-0.038,0.361-0.048,0.541c-0.78,8.963-0.835,17.959-0.484,26.938
		c-0.081-0.002-0.161-0.002-0.242,0c-109.846-3.018-196.934-90.324-199.938-200.217c-0.009-0.08-0.02-0.16-0.032-0.24
		c10.565,0.48,21.142,0.367,31.656-0.816c4.419-0.314,7.747-4.15,7.433-8.568c-0.314-4.42-4.15-7.748-8.569-7.434
		c-0.205,0.014-0.409,0.037-0.612,0.066c-9.902,1.088-19.849,1.199-29.781,0.752l0,0c-1.977-53.598,18.292-105.432,56.094-143.25
		c37.795-37.811,89.729-58.098,143.25-56.093c0.423,8.466,0.423,16.958-0.302,25.405c-0.533,4.389,2.592,8.377,6.98,8.91
		c4.388,0.533,8.378-2.592,8.911-6.98c0.021-0.172,0.036-0.348,0.046-0.521c0.774-8.932,0.768-17.955,0.363-26.938L231.689,1036.485
		z"/>
	<path style="fill:#FFFFFF;" d="M242.865,1049.212c0.121,0.004,0.242,0.004,0.363,0c97.513,2.668,174.86,80.07,177.536,177.646
		c-0.003,0.123-0.003,0.244,0,0.367c-9.375-0.416-18.746-0.367-28.105,0.688c-3.915,0.283-6.859,3.688-6.575,7.604
		c0.284,3.914,3.688,6.857,7.603,6.574c0.009,0,0.018,0,0.027,0c0.143-0.049,0.284-0.102,0.423-0.16
		c8.799-0.961,17.671-1.008,26.523-0.607c1.76,47.523-16.289,93.592-49.828,127.152c-33.559,33.578-79.593,51.641-127.152,49.885
		c-0.041,0-0.081,0-0.122,0c-0.363-7.51-0.302-15.039,0.423-22.529c0.476-3.896-2.296-7.439-6.191-7.916
		c-3.896-0.477-7.44,2.297-7.916,6.191c-0.019,0.158-0.033,0.316-0.042,0.477c-0.695,7.957-0.738,15.943-0.423,23.916
		c-0.081-0.002-0.161-0.002-0.242,0c-97.522-2.678-174.84-80.191-177.508-177.756c-0.008-0.08-0.017-0.16-0.027-0.24
		c9.379,0.416,18.771,0.367,28.105-0.721c3.922-0.293,6.864-3.711,6.57-7.633c-0.294-3.924-3.711-6.865-7.634-6.57
		c-0.162,0.012-0.323,0.029-0.484,0.053c-8.791,0.961-17.622,1.072-26.44,0.672l0,0c-1.754-47.586,16.239-93.605,49.801-127.182
		c33.555-33.568,79.663-51.58,127.179-49.801c0.423,7.516,0.423,15.057-0.302,22.555c-0.471,3.896,2.305,7.438,6.201,7.908
		c3.896,0.471,7.437-2.305,7.908-6.201c0.018-0.152,0.032-0.305,0.04-0.459c0.689-7.93,0.683-15.941,0.363-23.916L242.865,1049.212z
		"/>
	<g>
		<path style="fill:#5A3392;" d="M216.325,1020.615c-57.964-2.181-114.146,19.848-155.094,60.813
			c-40.948,40.965-62.982,97.197-60.844,155.217c0.151,4.418,3.855,7.879,8.274,7.729s7.879-3.855,7.728-8.273
			c-0.001-0.016-0.001-0.031-0.002-0.047c-1.975-53.598,18.354-105.494,56.156-143.313c37.802-37.818,89.655-58.138,143.188-56.125
			c4.418,0.167,8.135-3.279,8.302-7.697c0.167-4.418-3.279-8.136-7.697-8.303C216.332,1020.615,216.328,1020.615,216.325,1020.615
			L216.325,1020.615z"/>
		<path style="fill:#5A3392;" d="M445.482,1246.767c1.487,1.451,2.35,3.424,2.409,5.5c2.178,57.988-19.848,114.211-60.793,155.18
			c-40.945,40.969-97.156,63.014-155.152,60.875c-4.419,0.014-8.012-3.557-8.025-7.977c-0.013-4.418,3.558-8.01,7.977-8.023
			c0.215-0.002,0.431,0.006,0.645,0.023c53.569,1.977,105.442-18.391,143.241-56.211c37.8-37.822,58.12-89.686,56.108-143.248
			c-0.223-4.412,3.173-8.172,7.587-8.395C441.71,1244.378,443.886,1245.204,445.482,1246.767L445.482,1246.767z"/>
		<path style="fill:#5A3392;" d="M231.668,1020.49c-4.403,0.371-7.671,4.242-7.3,8.645c0.34,4.03,3.634,7.173,7.675,7.323
			c109.834,3.005,196.986,90.22,200,200.124c-0.137,4.416,3.332,8.107,7.748,8.246c4.417,0.137,8.108-3.332,8.246-7.748
			c0.01-0.311,0.001-0.621-0.025-0.93c-3.24-118.146-97.446-212.426-215.531-215.656c-0.271-0.014-0.542-0.014-0.812,0
			L231.668,1020.49z"/>
		<path style="fill:#5A3392;" d="M7.918,1244.49c-4.407,0.186-7.832,3.904-7.656,8.313
			c3.228,118.137,97.436,212.414,215.531,215.656c4.418,0.129,8.105-3.348,8.234-7.766c0.129-4.418-3.347-8.105-7.766-8.234l0,0
			c-109.846-3.014-197.028-90.199-200.031-200.094c-0.066-4.418-3.701-7.947-8.12-7.881
			C8.047,1244.486,7.983,1244.488,7.918,1244.49L7.918,1244.49z"/>
	</g>
	<g>
		<path style="fill:#EE746C;" d="M216.168,1092.24c-3.506,0.125-6.521,2.52-7.438,5.906c-3.36,11.719-7.818,23.072-13.344,33.938
			c-2.163,3.854-0.792,8.73,3.061,10.893s8.73,0.793,10.893-3.061c0.107-0.189,0.205-0.385,0.296-0.582
			c5.989-11.773,10.828-24.082,14.469-36.781c1.279-4.229-1.112-8.695-5.342-9.975
			C217.923,1092.323,217.046,1092.208,216.168,1092.24z"/>
		<path style="fill:#EE746C;" d="M223.418,1020.52c-4.419-0.004-8.004,3.576-8.007,7.994c0,0.264,0.013,0.526,0.038,0.788
			c0.924,10.882,0.914,21.838-0.032,32.719c-0.487,4.393,2.678,8.348,7.07,8.834s8.347-2.678,8.834-7.07
			c0.014-0.129,0.025-0.258,0.033-0.387c1.024-11.791,1.032-23.644,0.032-35.437c-0.295-4.186-3.773-7.432-7.969-7.438
			L223.418,1020.52z"/>
		<path style="fill:#EE746C;" d="M46.731,1235.271c-0.177-0.006-0.354-0.006-0.531,0c-12.373,1.377-24.879,1.504-37.281,0.432
			c-4.39-0.506-8.359,2.643-8.865,7.031c-0.506,4.391,2.642,8.359,7.031,8.865c0.163,0.018,0.326,0.033,0.49,0.041
			c13.442,1.152,26.965,0.977,40.375-0.496c4.385-0.543,7.5-4.537,6.957-8.924c-0.507-4.098-4.049-7.135-8.176-7.014
			L46.731,1235.271z"/>
		<path style="fill:#EE746C;" d="M126.075,1209.115c-1.528-0.039-3.036,0.361-4.344,1.152
			c-12.544,7.352-25.901,13.271-39.781,17.594c-4.29,1.059-6.91,5.393-5.853,9.684s5.393,6.91,9.684,5.854
			c0.312-0.078,0.619-0.174,0.919-0.287c15.044-4.684,29.499-11.064,43.094-19.031c3.85-2.168,5.212-7.049,3.044-10.898
			c-1.381-2.451-3.949-3.996-6.762-4.07V1209.115z"/>
		<path style="fill:#EE746C;" d="M181.793,1159.677c-2.363,0.127-4.548,1.295-5.969,3.188c-8.837,11.35-18.91,21.635-30.063,30.719
			c-3.513,2.68-4.189,7.701-1.509,11.213c2.68,3.514,7.7,4.189,11.214,1.51c0.133-0.102,0.263-0.207,0.389-0.316
			c12.087-9.844,23.016-21.012,32.594-33.313c2.767-3.445,2.217-8.48-1.228-11.248
			C185.689,1160.198,183.757,1159.573,181.793,1159.677L181.793,1159.677z"/>
		<path style="fill:#EE746C;" d="M232.106,1396.74c3.497-0.121,6.51-2.5,7.438-5.875c3.36-11.719,7.818-23.102,13.344-33.969
			c2.158-3.855,0.781-8.73-3.075-10.889c-3.856-2.158-8.731-0.781-10.889,3.074c-0.103,0.184-0.198,0.371-0.286,0.563
			c-5.989,11.775-10.828,24.082-14.469,36.783c-1.279,4.229,1.112,8.695,5.341,9.975
			C230.351,1396.656,231.228,1396.771,232.106,1396.74z"/>
		<path style="fill:#EE746C;" d="M224.856,1468.458c4.419,0.004,8.004-3.576,8.007-7.994c0-0.264-0.013-0.525-0.038-0.787
			c-0.924-10.881-0.914-21.838,0.032-32.719c0.487-4.393-2.678-8.348-7.07-8.834c-4.392-0.488-8.347,2.678-8.834,7.07
			c-0.014,0.129-0.025,0.258-0.033,0.387c-1.024,11.793-1.032,23.645-0.032,35.438c0.295,4.186,3.773,7.432,7.969,7.438
			L224.856,1468.458z"/>
		<path style="fill:#EE746C;" d="M401.543,1253.708c0.177,0.006,0.354,0.006,0.531,0c12.373-1.359,24.848-1.535,37.25-0.465
			c4.392,0.488,8.348-2.676,8.836-7.066c0.489-4.393-2.676-8.348-7.067-8.838c-0.131-0.014-0.263-0.025-0.394-0.033
			c-13.442-1.152-26.965-0.977-40.375,0.496c-4.385,0.543-7.5,4.537-6.957,8.924c0.507,4.098,4.049,7.135,8.176,7.014
			L401.543,1253.708z"/>
		<path style="fill:#EE746C;" d="M322.2,1279.865c1.528,0.039,3.036-0.361,4.344-1.152c12.544-7.352,25.901-13.242,39.781-17.563
			c4.211-1.34,6.54-5.838,5.201-10.049c-1.327-4.174-5.761-6.506-9.951-5.232c-15.044,4.684-29.499,11.064-43.094,19.031
			c-3.85,2.168-5.212,7.049-3.044,10.898c1.381,2.451,3.949,3.996,6.762,4.07V1279.865z"/>
		<path style="fill:#EE746C;" d="M266.481,1329.302c2.358-0.119,4.542-1.275,5.969-3.156c8.837-11.35,18.91-21.668,30.063-30.75
			c3.513-2.68,4.189-7.701,1.51-11.213c-2.68-3.514-7.7-4.189-11.214-1.51c-0.133,0.102-0.263,0.207-0.39,0.316
			c-12.087,9.846-23.016,21.012-32.594,33.314c-2.767,3.445-2.217,8.48,1.228,11.248c1.533,1.23,3.465,1.855,5.428,1.752V1329.302z"
			/>
	</g>
</g>
</svg>